<svg width="176" height="23" viewBox="0 0 176 23" fill="none" xmlns="http://www.w3.org/2000/svg">
<path d="M7.50356 18.24C6.28756 18.24 5.19156 18.024 4.21556 17.592C3.25556 17.144 2.47156 16.496 1.86356 15.648C1.27156 14.784 0.927563 13.736 0.831563 12.504H4.50356C4.63156 13.496 4.93556 14.232 5.41556 14.712C5.89556 15.176 6.54356 15.408 7.35956 15.408C8.06356 15.408 8.64756 15.2 9.11156 14.784C9.59156 14.368 9.83156 13.76 9.83156 12.96C9.83156 12.192 9.59956 11.576 9.13556 11.112C8.68756 10.632 7.91956 10.392 6.83156 10.392H5.29556V7.608H6.75956C7.70356 7.608 8.38356 7.4 8.79956 6.984C9.21556 6.568 9.42356 6.04 9.42356 5.4C9.42356 4.792 9.26356 4.296 8.94356 3.912C8.62356 3.512 8.07956 3.312 7.31156 3.312C6.65556 3.312 6.08756 3.512 5.60756 3.912C5.12756 4.312 4.83156 4.92 4.71956 5.736H1.02356C1.16756 4.648 1.51156 3.712 2.05556 2.928C2.59956 2.144 3.32756 1.544 4.23956 1.128C5.15156 0.696 6.21556 0.48 7.43156 0.48C8.64756 0.48 9.68756 0.671999 10.5516 1.056C11.4316 1.424 12.1116 1.952 12.5916 2.64C13.0716 3.328 13.3116 4.152 13.3116 5.112C13.3116 5.912 13.1276 6.616 12.7596 7.224C12.3916 7.832 11.9276 8.304 11.3676 8.64C10.8236 8.976 10.2716 9.144 9.71156 9.144L9.68756 8.64C10.5356 8.64 11.2636 8.848 11.8716 9.264C12.4796 9.664 12.9436 10.208 13.2636 10.896C13.5836 11.568 13.7436 12.32 13.7436 13.152C13.7436 14.192 13.4716 15.096 12.9276 15.864C12.3836 16.632 11.6396 17.224 10.6956 17.64C9.75156 18.04 8.68756 18.24 7.50356 18.24ZM17.7763 18V15.12H22.1443C23.3923 15.12 24.4483 14.872 25.3123 14.376C26.1923 13.864 26.8563 13.168 27.3043 12.288C27.7683 11.408 28.0003 10.4 28.0003 9.264C28.0003 8.144 27.7763 7.16 27.3283 6.312C26.8803 5.464 26.2163 4.8 25.3363 4.32C24.4723 3.84 23.4083 3.6 22.1443 3.6H17.8483V0.719999H22.1443C24.0803 0.719999 25.7683 1.072 27.2083 1.776C28.6483 2.464 29.7603 3.456 30.5443 4.752C31.3443 6.032 31.7443 7.552 31.7443 9.312C31.7443 11.072 31.3443 12.608 30.5443 13.92C29.7443 15.216 28.6243 16.224 27.1843 16.944C25.7603 17.648 24.0883 18 22.1683 18H17.7763ZM15.5203 18V0.719999H19.2163V18H15.5203ZM33.9489 18V0.719999H37.0689V18H33.9489ZM45.2529 18V0.719999H48.3729V18H45.2529ZM35.4369 7.776H46.6689V10.224H35.4369V7.776ZM57.0276 18.24C55.7316 18.24 54.5876 17.968 53.5956 17.424C52.6196 16.88 51.8596 16.128 51.3156 15.168C50.7716 14.192 50.4996 13.08 50.4996 11.832C50.4996 10.584 50.7716 9.488 51.3156 8.544C51.8596 7.6 52.6196 6.864 53.5956 6.336C54.5876 5.792 55.7316 5.52 57.0276 5.52C58.3396 5.52 59.4836 5.792 60.4596 6.336C61.4356 6.864 62.1956 7.6 62.7396 8.544C63.2836 9.488 63.5556 10.584 63.5556 11.832C63.5556 13.08 63.2756 14.192 62.7156 15.168C62.1716 16.128 61.4116 16.88 60.4356 17.424C59.4596 17.968 58.3236 18.24 57.0276 18.24ZM57.0276 15.816C57.6676 15.816 58.2436 15.656 58.7556 15.336C59.2676 15 59.6676 14.536 59.9556 13.944C60.2436 13.336 60.3876 12.624 60.3876 11.808C60.3876 10.608 60.0676 9.664 59.4276 8.976C58.8036 8.288 58.0036 7.944 57.0276 7.944C56.0516 7.944 55.2436 8.288 54.6036 8.976C53.9636 9.664 53.6436 10.608 53.6436 11.808C53.6436 12.624 53.7876 13.336 54.0756 13.944C54.3796 14.536 54.7796 15 55.2756 15.336C55.7876 15.656 56.3716 15.816 57.0276 15.816ZM65.7799 18V5.76H68.7319V8.64H68.8039V18H65.7799ZM74.0119 18V10.104C74.0119 9.384 73.8279 8.856 73.4599 8.52C73.1079 8.168 72.6039 7.992 71.9479 7.992C71.3719 7.992 70.8439 8.128 70.3639 8.4C69.8839 8.672 69.4999 9.056 69.2119 9.552C68.9399 10.048 68.8039 10.624 68.8039 11.28L68.4919 8.472C68.9079 7.576 69.5079 6.864 70.2919 6.336C71.0759 5.792 71.9879 5.52 73.0279 5.52C74.2759 5.52 75.2599 5.88 75.9799 6.6C76.6999 7.304 77.0599 8.216 77.0599 9.336V18H74.0119ZM82.2439 18V10.104C82.2439 9.384 82.0679 8.856 81.7159 8.52C81.3639 8.168 80.8599 7.992 80.2039 7.992C79.6119 7.992 79.0759 8.128 78.5959 8.4C78.1159 8.672 77.7399 9.056 77.4679 9.552C77.1959 10.048 77.0599 10.624 77.0599 11.28L76.5319 8.472C76.9319 7.576 77.5399 6.864 78.3559 6.336C79.1719 5.792 80.1159 5.52 81.1879 5.52C82.4679 5.52 83.4679 5.888 84.1879 6.624C84.9239 7.344 85.2919 8.304 85.2919 9.504V18H82.2439ZM93.8696 18.24C92.5736 18.24 91.4376 17.968 90.4616 17.424C89.5016 16.88 88.7496 16.128 88.2056 15.168C87.6776 14.208 87.4136 13.104 87.4136 11.856C87.4136 10.608 87.6776 9.512 88.2056 8.568C88.7496 7.608 89.5016 6.864 90.4616 6.336C91.4216 5.792 92.5416 5.52 93.8216 5.52C95.0376 5.52 96.0936 5.776 96.9896 6.288C97.8856 6.784 98.5816 7.488 99.0776 8.4C99.5736 9.312 99.8216 10.376 99.8216 11.592C99.8216 11.816 99.8136 12.024 99.7976 12.216C99.7816 12.408 99.7576 12.6 99.7256 12.792H89.2856V10.68H97.3976L96.7736 11.256C96.7736 10.104 96.5096 9.24 95.9816 8.664C95.4536 8.088 94.7176 7.8 93.7736 7.8C92.7496 7.8 91.9336 8.152 91.3256 8.856C90.7336 9.56 90.4376 10.576 90.4376 11.904C90.4376 13.216 90.7336 14.224 91.3256 14.928C91.9336 15.616 92.7896 15.96 93.8936 15.96C94.5336 15.96 95.0936 15.84 95.5736 15.6C96.0536 15.36 96.4056 14.992 96.6296 14.496H99.4856C99.0856 15.648 98.4056 16.56 97.4456 17.232C96.5016 17.904 95.3096 18.24 93.8696 18.24ZM102.014 18V5.76H105.038V18H102.014ZM101.87 3.744V0.407999H105.158V3.744H101.87ZM114.59 18.216C112.414 18.216 110.678 17.72 109.382 16.728C108.102 15.72 107.35 14.304 107.126 12.48H110.126C110.27 13.536 110.742 14.36 111.542 14.952C112.342 15.528 113.39 15.816 114.686 15.816C115.758 15.816 116.574 15.624 117.134 15.24C117.71 14.84 117.998 14.288 117.998 13.584C117.998 12.96 117.822 12.456 117.47 12.072C117.118 11.688 116.526 11.376 115.694 11.136L112.574 10.2C110.99 9.72 109.822 9.088 109.07 8.304C108.334 7.52 107.966 6.536 107.966 5.352C107.966 4.36 108.222 3.496 108.734 2.76C109.246 2.024 109.966 1.456 110.894 1.056C111.838 0.656 112.934 0.456 114.182 0.456C116.102 0.456 117.63 0.927999 118.766 1.872C119.918 2.8 120.574 4.064 120.734 5.664H117.734C117.558 4.704 117.158 4 116.534 3.552C115.91 3.088 115.07 2.856 114.014 2.856C113.086 2.856 112.35 3.04 111.806 3.408C111.262 3.776 110.99 4.28 110.99 4.92C110.99 5.448 111.15 5.896 111.47 6.264C111.806 6.632 112.422 6.952 113.318 7.224L116.486 8.184C118.07 8.648 119.222 9.28 119.942 10.08C120.662 10.88 121.022 11.896 121.022 13.128C121.022 14.76 120.454 16.016 119.318 16.896C118.198 17.776 116.622 18.216 114.59 18.216ZM130.28 18.24C129.112 18.24 128.16 17.968 127.424 17.424C126.704 16.864 126.256 16.096 126.08 15.12L126.32 15.096V22.92H123.296V5.76H126.248V8.52L126.008 8.472C126.232 7.56 126.744 6.84 127.544 6.312C128.344 5.784 129.32 5.52 130.472 5.52C131.56 5.52 132.504 5.784 133.304 6.312C134.12 6.824 134.752 7.552 135.2 8.496C135.648 9.44 135.872 10.552 135.872 11.832C135.872 13.128 135.64 14.256 135.176 15.216C134.712 16.176 134.064 16.92 133.232 17.448C132.4 17.976 131.416 18.24 130.28 18.24ZM129.512 15.744C130.488 15.744 131.264 15.408 131.84 14.736C132.416 14.048 132.704 13.088 132.704 11.856C132.704 10.624 132.408 9.672 131.816 9C131.24 8.328 130.464 7.992 129.488 7.992C128.528 7.992 127.752 8.336 127.16 9.024C126.568 9.696 126.272 10.648 126.272 11.88C126.272 13.112 126.568 14.064 127.16 14.736C127.752 15.408 128.536 15.744 129.512 15.744ZM145.81 18C145.73 17.68 145.666 17.328 145.618 16.944C145.586 16.56 145.57 16.096 145.57 15.552H145.474V9.744C145.474 9.104 145.29 8.624 144.922 8.304C144.57 7.968 144.026 7.8 143.29 7.8C142.57 7.8 141.994 7.936 141.562 8.208C141.146 8.464 140.89 8.84 140.794 9.336H137.89C138.018 8.2 138.562 7.28 139.522 6.576C140.482 5.872 141.77 5.52 143.386 5.52C145.066 5.52 146.338 5.904 147.202 6.672C148.066 7.424 148.498 8.536 148.498 10.008V15.552C148.498 15.936 148.522 16.328 148.57 16.728C148.634 17.128 148.722 17.552 148.834 18H145.81ZM141.562 18.24C140.33 18.24 139.346 17.936 138.61 17.328C137.89 16.704 137.53 15.872 137.53 14.832C137.53 13.712 137.938 12.824 138.754 12.168C139.57 11.512 140.722 11.072 142.21 10.848L146.026 10.272V12.192L142.714 12.696C141.994 12.808 141.45 13.008 141.082 13.296C140.73 13.584 140.554 13.984 140.554 14.496C140.554 14.96 140.722 15.32 141.058 15.576C141.394 15.816 141.858 15.936 142.45 15.936C143.314 15.936 144.034 15.72 144.61 15.288C145.186 14.856 145.474 14.328 145.474 13.704L145.81 15.552C145.49 16.432 144.962 17.104 144.226 17.568C143.506 18.016 142.618 18.24 141.562 18.24ZM156.678 18.24C155.446 18.24 154.358 17.968 153.414 17.424C152.486 16.88 151.75 16.128 151.206 15.168C150.678 14.192 150.414 13.088 150.414 11.856C150.414 10.624 150.678 9.536 151.206 8.592C151.75 7.632 152.486 6.88 153.414 6.336C154.358 5.792 155.446 5.52 156.678 5.52C157.686 5.52 158.598 5.712 159.414 6.096C160.23 6.464 160.902 6.992 161.43 7.68C161.958 8.352 162.294 9.136 162.438 10.032H159.534C159.358 9.376 159.022 8.864 158.526 8.496C158.03 8.128 157.43 7.944 156.726 7.944C156.07 7.944 155.502 8.104 155.022 8.424C154.558 8.744 154.198 9.2 153.942 9.792C153.686 10.384 153.558 11.072 153.558 11.856C153.558 12.656 153.686 13.352 153.942 13.944C154.198 14.536 154.566 15 155.046 15.336C155.526 15.656 156.086 15.816 156.726 15.816C157.43 15.816 158.03 15.632 158.526 15.264C159.022 14.896 159.358 14.384 159.534 13.728H162.438C162.294 14.624 161.95 15.416 161.406 16.104C160.878 16.776 160.206 17.304 159.39 17.688C158.59 18.056 157.686 18.24 156.678 18.24ZM170.042 18.24C168.746 18.24 167.61 17.968 166.634 17.424C165.674 16.88 164.922 16.128 164.378 15.168C163.85 14.208 163.586 13.104 163.586 11.856C163.586 10.608 163.85 9.512 164.378 8.568C164.922 7.608 165.674 6.864 166.634 6.336C167.594 5.792 168.714 5.52 169.993 5.52C171.21 5.52 172.266 5.776 173.162 6.288C174.058 6.784 174.754 7.488 175.25 8.4C175.746 9.312 175.994 10.376 175.994 11.592C175.994 11.816 175.986 12.024 175.97 12.216C175.954 12.408 175.93 12.6 175.898 12.792H165.458V10.68H173.57L172.946 11.256C172.946 10.104 172.682 9.24 172.154 8.664C171.626 8.088 170.89 7.8 169.946 7.8C168.922 7.8 168.106 8.152 167.498 8.856C166.906 9.56 166.61 10.576 166.61 11.904C166.61 13.216 166.906 14.224 167.498 14.928C168.106 15.616 168.962 15.96 170.066 15.96C170.706 15.96 171.266 15.84 171.746 15.6C172.226 15.36 172.578 14.992 172.802 14.496H175.658C175.258 15.648 174.578 16.56 173.618 17.232C172.674 17.904 171.482 18.24 170.042 18.24Z" fill="black"/>
</svg>
