<svg xmlns="http://www.w3.org/2000/svg" width="1600" height="794" fill="none"><path fill="#0F172A" d="M0 0h1600v794H0z"/><mask id="a" width="1600" height="794" x="0" y="0" maskUnits="userSpaceOnUse" style="mask-type:alpha"><path fill="#0F172A" d="M0 0h1600v794H0z"/></mask><g mask="url(#a)"><g filter="url(#b)" opacity=".2"><circle cx="214.5" cy="633.5" r="188.5" fill="#76F4DE"/></g><g filter="url(#c)" opacity=".2"><circle cx="1379.5" cy="276.5" r="149.5" fill="#FFDDA9"/></g><path stroke="#fff" stroke-linecap="round" stroke-width="3" d="M1636 579.069c-17.89-12.136-44.9-17.243-66.15-14.218-26.8 3.815-47.13 18.298-61.52 40.489-7.31 11.275-15.51 22.845-18.32 36.265-3.22 15.391-2.96 32.271-1.95 47.907 1.45 22.548 22 39.758 42.64 44.352 13.38 2.977 23.63 2.912 36.06-3.503 1.82-.937 6.8-3.691 7.15-6.336.99-7.447-7.73-16.434-12.96-20.605-11.87-9.472-32.61-13.062-47.02-14.732-14.44-1.675-30.18-2.781-44.54.051-14.93 2.945-30.6 9.644-43.78 17.154-26.5 15.106-39.96 40.702-52.26 67.585-10.43 22.792-10.42 50.215-3.65 74.023 2.42 8.515 5.84 16.963 7.97 25.499" opacity=".1"/><path stroke="#fff" stroke-linecap="round" stroke-opacity=".14" stroke-width="3" d="M-80 212c1.94-17.653 9.147-34.042 23.862-44.525 6.7-4.773 12.993-8.507 20.612-11.515 6.486-2.561 14.033-3.393 20.87-4.436 16.597-2.532 33.326-3.175 49.948-5.374 15.193-2.01 30.385-2.994 45.458-5.885 16.677-3.199 31.101-8.962 46.313-16.548 15.737-7.847 31.598-15.357 44.646-27.38 14.176-13.062 27.86-27.794 38.958-43.545C230.595 24.51 246.581-6.43 253.645-40.48 257.161-57.432 261-74.596 261-92"/></g><defs><filter id="b" width="905" height="905" x="-238" y="181" color-interpolation-filters="sRGB" filterUnits="userSpaceOnUse"><feFlood flood-opacity="0" result="BackgroundImageFix"/><feBlend in="SourceGraphic" in2="BackgroundImageFix" result="shape"/><feGaussianBlur result="effect1_foregroundBlur_1_13985" stdDeviation="132"/></filter><filter id="c" width="827" height="827" x="966" y="-137" color-interpolation-filters="sRGB" filterUnits="userSpaceOnUse"><feFlood flood-opacity="0" result="BackgroundImageFix"/><feBlend in="SourceGraphic" in2="BackgroundImageFix" result="shape"/><feGaussianBlur result="effect1_foregroundBlur_1_13985" stdDeviation="132"/></filter></defs></svg>